# File created by Blade
# Date/Time:  Wed Jan 21 17:05:57 2015
# Frame Rate: 120.000 fps
#------------------------------------------------------
:FULLY-SPECIFIED
:DEGREES
108
root 19.454403 35.763256 -20.417280 -172.239370 -0.045065 -179.487144
Spine -5.847208 1.154511 -1.321179
Head 4.771456 -2.592078 2.307007
LeftShoulder -5.997833 -34.962058 16.396558
LeftArm 7.497840 5.871765 -7.710722
LeftForeArm 2.556163 -0.000000 -2.822989
LeftHand -7.604726 -0.000000 2.924788
LeftHandThumb1 -26.253704 0.000000 33.147579
RightShoulder -6.446868 -2.211718 -8.732095
RightArm 11.639142 33.100852 8.128101
RightForeArm -29.948636 -0.000000 4.844370
RightHand -8.154942 -0.000000 -1.540893
RightHandThumb1 -24.326973 -0.000000 -32.862282
LeftUpLeg -9.632035 13.230913 1.222154
LeftLeg 6.492647 -0.000000 -0.000000
LeftFoot -20.677513 23.563765 -15.436732
LeftToeBase 24.160953 -0.000000 -0.000000
RightUpLeg -10.869513 -9.994005 -0.388732
RightLeg 9.048459 -0.000000 -0.000000
RightFoot -22.740333 -20.472575 19.700689
RightToeBase 22.650612 -0.000000 -0.000000
109
root 19.461832 35.756663 -20.277651 -172.068564 -0.021104 -179.493040
Spine -5.296382 1.251534 -1.382663
Head 4.761896 -2.842405 2.425273
LeftShoulder -5.699683 -35.252907 16.362337
LeftArm 7.823086 6.164133 -7.638882
LeftForeArm 2.420834 -0.000000 -2.704538
LeftHand -7.646957 -0.000000 3.273366
LeftHandThumb1 -26.253704 0.000000 33.147579
RightShoulder -6.224903 -2.029100 -8.818718
RightArm 11.773356 33.236902 7.983691
RightForeArm -29.484257 -0.000000 5.053790
RightHand -8.097951 -0.000000 -1.839983
RightHandThumb1 -24.326973 -0.000000 -32.862282
LeftUpLeg -10.345932 13.331380 1.127725
LeftLeg 7.083156 -0.000000 -0.000000
LeftFoot -20.743313 23.461095 -15.435867
LeftToeBase 24.204350 -0.000000 -0.000000
RightUpLeg -11.603087 -9.898700 -0.327590
RightLeg 9.740949 -0.000000 -0.000000
RightFoot -23.137045 -20.425354 19.930523
RightToeBase 21.854144 -0.000000 -0.000000
110
root 19.467647 35.747868 -20.131641 -171.911442 0.057370 -179.508857
Spine -4.682888 1.360714 -1.457196
Head 4.728309 -2.884951 2.516366
LeftShoulder -5.418878 -35.478862 16.293341
LeftArm 8.147455 6.593714 -7.477540
LeftForeArm 2.267640 -0.000000 -2.513384
LeftHand -7.541014 -0.000000 3.623042
LeftHandThumb1 -26.253704 0.000000 33.147579
RightShoulder -6.016158 -1.799545 -8.892644
RightArm 12.059366 33.420735 7.883551
RightForeArm -28.969991 0.000000 5.221615
RightHand -8.239111 -0.000000 -2.082926
RightHandThumb1 -24.326973 -0.000000 -32.862282
LeftUpLeg -11.047876 13.466610 1.013654
LeftLeg 7.668911 -0.000000 -0.000000
LeftFoot -20.844280 23.374330 -15.479351
LeftToeBase 24.312288 -0.000000 -0.000000
RightUpLeg -12.404793 -9.746791 -0.291675
RightLeg 10.570524 -0.000000 -0.000000
RightFoot -23.589343 -20.417428 20.166515
RightToeBase 20.951101 -0.000000 -0.000000
111
root 19.479245 35.737960 -19.984588 -171.750567 0.017135 -179.505564
Spine -4.047117 1.401087 -1.503965
Head 4.662676 -3.055626 2.613785
LeftShoulder -5.098664 -35.656350 16.202773
LeftArm 8.540198 6.817343 -7.340946
LeftForeArm 2.206676 -0.000000 -2.333241
LeftHand -7.568274 -0.000000 4.017097
LeftHandThumb1 -26.253704 0.000000 33.147579
RightShoulder -5.871585 -1.680216 -8.955161
RightArm 12.429244 33.724000 7.843888
RightForeArm -28.395134 -0.000000 5.367036
RightHand -8.371144 -0.000000 -2.396499
RightHandThumb1 -24.326973 -0.000000 -32.862282
LeftUpLeg -11.804670 13.503817 0.942103
LeftLeg 8.331822 -0.000000 -0.000000
LeftFoot -20.925062 23.234089 -15.483818
LeftToeBase 24.344458 -0.000000 -0.000000
RightUpLeg -13.165992 -9.651471 -0.215928
RightLeg 11.336975 -0.000000 -0.000000
RightFoot -24.054567 -20.538368 20.484500
RightToeBase 19.959492 -0.000000 -0.000000
112
root 19.488497 35.726275 -19.837150 -171.602363 0.010495 -179.511360
Spine -3.391018 1.450366 -1.561533
Head 4.629713 -3.189114 2.733333
LeftShoulder -4.795909 -35.755028 16.097582
LeftArm 8.994667 6.915455 -7.183098
LeftForeArm 2.291087 -0.000000 -2.202094
LeftHand -7.443600 -0.000000 4.268821
LeftHandThumb1 -26.253704 0.000000 33.147579
RightShoulder -5.671771 -1.540825 -9.027454
RightArm 12.763299 33.928360 7.778044
RightForeArm -27.883439 0.000000 5.483995
RightHand -8.387754 -0.000000 -2.633307
RightHandThumb1 -24.326973 -0.000000 -32.862282
LeftUpLeg -12.561929 13.634356 0.849562
LeftLeg 9.018198 -0.000000 -0.000000
LeftFoot -21.041078 23.044823 -15.505511
LeftToeBase 24.533993 -0.000000 -0.000000
RightUpLeg -13.931601 -9.630655 -0.152618
RightLeg 12.121632 -0.000000 -0.000000
RightFoot -24.492639 -20.494010 20.928075
RightToeBase 18.448234 -0.000000 -0.000000
113
root 19.497321 35.711076 -19.682745 -171.476671 0.035173 -179.540851
Spine -2.635981 1.540582 -1.663859
Head 4.478353 -3.315172 2.878711
LeftShoulder -4.453027 -36.082763 16.055610
LeftArm 9.338974 7.237695 -7.054122
LeftForeArm 2.320945 0.000000 -2.016257
LeftHand -7.300250 -0.000000 4.587342
LeftHandThumb1 -26.253704 0.000000 33.147579
RightShoulder -5.458310 -1.348263 -9.113619
RightArm 13.049286 34.155033 7.743489
RightForeArm -27.424967 -0.000000 5.682424
RightHand -8.559413 0.000000 -2.987621
RightHandThumb1 -24.326973 -0.000000 -32.862282
LeftUpLeg -13.298158 13.754010 0.737457
LeftLeg 9.703552 -0.000000 -0.000000
LeftFoot -21.154612 22.858557 -15.521609
LeftToeBase 24.591001 -0.000000 -0.000000
RightUpLeg -14.729337 -9.564138 -0.124704
RightLeg 12.987502 -0.000000 -0.000000
RightFoot -25.018668 -20.535301 21.252571
RightToeBase 17.610749 -0.000000 -0.000000
114
root 19.506974 35.692234 -19.531579 -171.409591 -0.047615 -179.570542
Spine -1.809194 1.528759 -1.743490
Head 4.349309 -3.428599 3.037517
LeftShoulder -4.086201 -36.301772 15.974775
LeftArm 9.754170 7.508938 -6.900163
LeftForeArm 2.317274 -0.000000 -1.870241
LeftHand -7.286632 0.000000 4.985824
LeftHandThumb1 -26.253704 0.000000 33.147579
RightShoulder -5.219388 -1.156713 -9.226230
RightArm 13.340659 34.268263 7.720534
RightForeArm -26.873589 -0.000000 5.892768
RightHand -8.728595 -0.000000 -3.488215
RightHandThumb1 -24.326973 -0.000000 -32.862282
LeftUpLeg -13.990902 13.765569 0.659154
LeftLeg 10.414448 -0.000000 -0.000000
LeftFoot -21.305271 22.660816 -15.512471
LeftToeBase 24.685864 -0.000000 -0.000000
RightUpLeg -15.430140 -9.708695 -0.077813
RightLeg 13.802966 -0.000000 -0.000000
RightFoot -25.532618 -20.711907 21.147402
RightToeBase 16.971029 -0.000000 -0.000000
115
root 19.517135 35.670078 -19.375726 -171.273894 -0.101026 -179.587898
Spine -1.032347 1.519132 -1.811993
Head 4.183013 -3.522203 3.184544
LeftShoulder -3.794654 -36.493671 15.956975
LeftArm 10.188403 7.708219 -6.783471
LeftForeArm 2.276291 -0.000000 -1.687255
LeftHand -7.246632 -0.000000 5.225881
LeftHandThumb1 -26.253704 0.000000 33.147579
RightShoulder -4.982573 -0.992675 -9.373304
RightArm 13.676769 34.450699 7.755839
RightForeArm -26.430120 -0.000000 6.169825
RightHand -8.824223 0.000000 -3.960207
RightHandThumb1 -24.326973 -0.000000 -32.862282
LeftUpLeg -14.789882 13.860421 0.568901
LeftLeg 11.207917 -0.000000 -0.000000
LeftFoot -21.516998 22.342716 -15.483387
LeftToeBase 24.731650 -0.000000 -0.000000
RightUpLeg -16.213420 -9.880935 0.003333
RightLeg 14.585898 -0.000000 -0.000000
RightFoot -26.041713 -21.028896 20.988871
RightToeBase 16.470985 -0.000000 -0.000000
116
root 19.535772 35.647598 -19.221692 -171.145467 -0.303128 -179.582542
Spine -0.244436 1.419850 -1.846823
Head 4.036270 -3.690008 3.339450
LeftShoulder -3.423527 -36.651900 15.898491
LeftArm 10.629621 7.802274 -6.678921
LeftForeArm 2.354419 -0.000000 -1.504106
LeftHand -7.093668 -0.000000 5.503617
LeftHandThumb1 -26.253704 0.000000 33.147579
RightShoulder -4.783203 -1.007337 -9.457184
RightArm 14.057186 34.610059 7.730512
RightForeArm -25.975706 -0.000000 6.300810
RightHand -8.724644 -0.000000 -4.651730
RightHandThumb1 -24.326973 -0.000000 -32.862282
LeftUpLeg -15.607687 13.777952 0.537849
LeftLeg 12.023121 -0.000000 -0.000000
LeftFoot -21.752355 22.078048 -15.509443
LeftToeBase 24.586069 -0.000000 -0.000000
RightUpLeg -16.976407 -10.339900 0.148104
RightLeg 15.333661 -0.000000 -0.000000
RightFoot -26.759791 -21.668386 21.124324
RightToeBase 16.483353 -0.000000 -0.000000
117
root 19.542894 35.618953 -19.063548 -171.080472 -0.419607 -179.627779
Spine 0.672166 1.365225 -1.921043
Head 3.771597 -3.784206 3.506300
LeftShoulder -3.073892 -36.831241 15.846852
LeftArm 11.100677 7.957043 -6.553965
LeftForeArm 2.255156 0.000000 -1.340735
LeftHand -7.148406 -0.000000 5.842720
LeftHandThumb1 -26.253704 0.000000 33.147579
RightShoulder -4.463524 -0.785981 -9.565405
RightArm 14.175755 34.077253 7.396208
RightForeArm -24.895393 -0.000000 6.479040
RightHand -8.958116 -0.000000 -5.395758
RightHandThumb1 -24.326973 -0.000000 -32.862282
LeftUpLeg -16.366723 13.780206 0.438218
LeftLeg 12.879384 -0.000000 -0.000000
LeftFoot -22.038948 21.772133 -15.503854
LeftToeBase 24.115853 -0.000000 -0.000000
RightUpLeg -17.704946 -10.734182 0.198206
RightLeg 16.116181 -0.000000 -0.000000
RightFoot -27.598393 -22.356256 21.471250
RightToeBase 15.731478 -0.000000 -0.000000
118
root 19.552441 35.587799 -18.901937 -170.951703 -0.557489 -179.658340
Spine 1.519073 1.318192 -1.957822
Head 3.583113 -3.870249 3.581945
LeftShoulder -2.669315 -37.025536 15.761941
LeftArm 11.531578 8.073987 -6.450950
LeftForeArm 2.218706 -0.000000 -1.147500
LeftHand -6.862331 -0.000000 6.197596
LeftHandThumb1 -26.253704 0.000000 33.147579
RightShoulder -4.196331 -0.713727 -9.742009
RightArm 14.435595 34.176279 7.348342
RightForeArm -24.336379 -0.000000 6.712977
RightHand -9.191824 0.000000 -5.712352
RightHandThumb1 -24.326973 -0.000000 -32.862282
LeftUpLeg -17.249043 13.834812 0.330804
LeftLeg 13.838694 -0.000000 -0.000000
LeftFoot -22.418014 21.341479 -15.567151
LeftToeBase 23.254315 -0.000000 -0.000000
RightUpLeg -18.528484 -11.290087 0.319343
RightLeg 16.965857 -0.000000 -0.000000
RightFoot -28.282859 -22.970568 21.541140
RightToeBase 14.973063 -0.000000 -0.000000
119
root 19.562316 35.551594 -18.731850 -170.758430 -0.643591 -179.707239
Spine 2.297382 1.284762 -2.054089
Head 3.375863 -3.972746 3.717951
LeftShoulder -2.284523 -37.215078 15.749567
LeftArm 11.956456 8.216745 -6.353649
LeftForeArm 2.217980 -0.000000 -0.927934
LeftHand -6.853736 0.000000 6.448156
LeftHandThumb1 -26.253704 0.000000 33.147579
RightShoulder -3.918871 -0.713682 -9.925346
RightArm 14.879201 34.467840 7.430389
RightForeArm -24.158987 0.000000 6.808752
RightHand -8.987319 -0.000000 -6.463132
RightHandThumb1 -24.326973 -0.000000 -32.862282
LeftUpLeg -18.218540 13.950620 0.181256
LeftLeg 14.833576 -0.000000 -0.000000
LeftFoot -22.947929 20.879197 -15.719577
LeftToeBase 22.402432 -0.000000 -0.000000
RightUpLeg -19.476870 -11.882669 0.451217
RightLeg 17.863211 -0.000000 -0.000000
RightFoot -28.934065 -23.385257 21.582052
RightToeBase 14.803640 -0.000000 -0.000000
